<svg width="401" height="401" viewBox="0 0 401 401" fill="none" xmlns="http://www.w3.org/2000/svg">
<path d="M257.491 143.914C267.952 148.233 276.15 155.556 279.387 162.582C279.745 163.357 280.252 164.054 280.88 164.633C281.507 165.212 282.242 165.662 283.043 165.957C283.845 166.252 284.696 166.386 285.549 166.352C286.402 166.318 287.24 166.116 288.015 165.758C288.79 165.4 289.487 164.893 290.066 164.266C290.646 163.638 291.095 162.903 291.39 162.102C291.685 161.301 291.82 160.449 291.785 159.596C291.751 158.743 291.55 157.905 291.192 157.13C286.196 146.304 274.969 137.069 262.459 131.897C249.864 126.694 234.628 125.049 221.256 131.218C219.691 131.941 218.477 133.257 217.881 134.875C217.286 136.493 217.357 138.281 218.08 139.847C218.803 141.412 220.118 142.626 221.736 143.222C223.354 143.817 225.143 143.746 226.708 143.023C235.808 138.819 247.111 139.617 257.493 143.908" fill="white"/>
<path fill-rule="evenodd" clip-rule="evenodd" d="M162.61 209.865C155.784 191.117 155.84 170.554 162.766 151.844C178.905 108.053 227.482 85.638 271.273 101.776C315.064 117.914 337.479 166.492 321.341 210.283C305.203 254.074 256.625 276.489 212.834 260.351C193.348 253.169 178.097 239.569 168.587 222.819L165.966 237.149L103.249 266.088L87.2891 231.499L150.006 202.56L162.61 209.865ZM219.577 242.054C185.892 229.64 168.65 192.272 181.064 158.587C193.477 124.902 230.845 107.659 264.53 120.073C298.215 132.487 315.458 169.855 303.044 203.54C290.63 237.225 253.262 254.467 219.577 242.054Z" fill="white"/>
<path d="M91.4484 271.534L75.4884 236.945L64.1703 242.168C57.8018 245.106 55.0214 252.651 57.9622 259.013L63.2848 270.549C66.2234 276.917 73.7679 279.697 80.1303 276.757L91.4484 271.534Z" fill="white"/>
</svg>
